<svg
  id="Capa_1"
  enable-background="new 0 0 512 512"
  height="512"
  viewBox="0 0 512 512"
  width="512"
  xmlns="http://www.w3.org/2000/svg"
><g><g><g><g><g><ellipse
              cx="256"
              cy="256"
              fill="#e5ecec"
              rx="245.845"
              ry="246.115"
            /></g></g><g><g><path
              d="m256.001 512c-68.415 0-132.665-26.601-180.915-74.902-99.747-99.858-99.747-262.338 0-362.194 48.25-48.302 112.499-74.904 180.914-74.904s132.664 26.601 180.913 74.902c99.747 99.857 99.747 262.338 0 362.195l-7.075-7.067 7.075 7.067c-48.248 48.302-112.498 74.903-180.912 74.903zm-.001-492c-63.068 0-122.293 24.519-166.764 69.038-91.962 92.063-91.962 241.861 0 333.925 44.471 44.519 103.696 69.037 166.764 69.037s122.293-24.518 166.763-69.037c91.963-92.063 91.963-241.862 0-333.926-44.47-44.519-103.694-69.037-166.763-69.037z"
            /></g></g></g><g><g><path
            d="m387.72 387.865c-72.63 72.71-190.808 72.71-263.439 0-42.533-42.58-60.158-100.797-52.876-156.337.206-1.567.431-3.132.676-4.695 2.704-17.233 7.82-34.157 15.349-50.219 8.907-19.003 21.191-36.8 36.851-52.478 72.63-72.71 190.809-72.71 263.439 0s72.63 191.018 0 263.729z"
            fill="#f5737f"
          /></g></g><g><g><path
            d="m87.43 176.613c8.907-19.003 21.191-36.8 36.851-52.478 72.63-72.71 190.809-72.71 263.439 0s72.63 191.019 0 263.729-190.808 72.71-263.439 0c-28.955-28.987-46.366-65.22-52.235-102.922"
            fill="#f5737f"
          /></g><g><path
            d="m256 452.397c-52.486 0-101.778-20.408-138.795-57.466-29.572-29.605-48.605-67.107-55.04-108.451-.85-5.457 2.886-10.569 8.343-11.419 5.447-.849 10.569 2.885 11.419 8.343 5.78 37.128 22.872 70.806 49.43 97.393 33.238 33.275 77.505 51.601 124.645 51.601s91.406-18.325 124.645-51.601c68.738-68.814 68.738-180.78 0-249.594-33.24-33.275-77.507-51.6-124.647-51.6s-91.406 18.325-124.645 51.601c-14.498 14.513-26.229 31.219-34.871 49.654-2.345 5-8.299 7.155-13.299 4.811-5.001-2.344-7.154-8.298-4.81-13.299 9.627-20.539 22.691-39.145 38.83-55.301 37.017-37.058 86.309-57.466 138.795-57.466s101.778 20.408 138.795 57.466c76.523 76.607 76.523 201.256 0 277.863-37.016 37.057-86.308 57.465-138.795 57.465z"
          /></g></g><g><g><path d="" fill="#f5737f" /></g><g><path
            d="m72.081 236.83c-4.235 0-8.104-2.772-9.46-6.786-1.352-4.002.006-8.573 3.374-11.145 3.232-2.469 7.735-2.712 11.225-.637 3.576 2.125 5.501 6.446 4.671 10.528-.939 4.613-5.098 8.04-9.81 8.04z"
          /></g></g><g><g><ellipse
            cx="256"
            cy="256"
            fill="#e5ecec"
            rx="126.714"
            ry="126.854"
          /></g></g><g><g><path
            d="m382.17 254.91c-4.183 0-7.996-2.706-9.405-6.636-1.423-3.968-.138-8.534 3.158-11.17 3.211-2.569 7.794-2.89 11.335-.802 3.613 2.13 5.547 6.443 4.722 10.558-.926 4.618-5.095 8.05-9.81 8.05z"
          /></g></g></g><g><g><g><ellipse
            cx="256"
            cy="235.23"
            fill="#ffcbbe"
            rx="46.388"
            ry="46.439"
          /></g><g><g><g><path
                d="m312.575 323.708v45.802c-35.503 17.709-77.647 17.709-113.149 0v-45.802c0-8.547 6.928-15.483 15.466-15.483h82.218c8.537 0 15.465 6.936 15.465 15.483z"
                fill="#8481e2"
              /></g><g><path
                d="m379.572 285.634c-5.262-1.69-10.892 1.199-12.583 6.456-5.685 17.663-15.263 33.32-28.467 46.539-4.943 4.948-10.275 9.41-15.947 13.357v-28.278c0-14.052-11.424-25.483-25.466-25.483h-82.217c-14.042 0-25.466 11.432-25.466 25.483v28.277c-5.672-3.947-11.005-8.41-15.948-13.358-45.521-45.561-45.521-119.693.002-165.256 22.003-22.031 51.309-34.165 82.52-34.165s60.518 12.134 82.525 34.17c8.866 8.866 16.196 19.017 21.786 30.17 2.476 4.938 8.484 6.93 13.421 4.46 4.938-2.475 6.935-8.483 4.46-13.421-6.553-13.073-15.14-24.967-25.521-35.347-25.781-25.815-60.113-40.032-96.672-40.032s-70.891 14.217-96.671 40.03c-53.309 53.355-53.309 140.172-.001 193.525 10.486 10.499 22.478 19.146 35.641 25.7.007.003.013.006.02.009 19.103 9.523 40.057 14.285 61.011 14.285s41.908-4.762 61.012-14.286c.007-.003.013-.006.02-.009 13.163-6.555 25.154-15.201 35.64-25.699 15.25-15.265 26.784-34.126 33.356-54.546 1.692-5.255-1.197-10.889-6.455-12.581zm-170.146 77.508v-39.434c0-3.023 2.452-5.483 5.466-5.483h82.217c3.014 0 5.466 2.46 5.466 5.483v39.434c-29.573 12.836-63.577 12.836-93.149 0z"
              /><path
                d="m199.612 235.23c0 31.12 25.296 56.438 56.389 56.438s56.389-25.318 56.389-56.438c0-31.121-25.296-56.439-56.389-56.439s-56.389 25.318-56.389 56.439zm92.777 0c0 20.092-16.324 36.438-36.389 36.438s-36.389-16.347-36.389-36.438c0-20.093 16.324-36.439 36.389-36.439s36.389 16.347 36.389 36.439z"
              /></g></g></g></g></g></g></svg>
